<svg width="160" height="160" viewBox="0 0 160 160" fill="none" xmlns="http://www.w3.org/2000/svg">
<path d="M56.4041 40.292C57.8681 42.3016 59.6041 44.1392 61.2337 46.032C66.3537 51.9824 65.9201 51.5224 66.2881 51.8032C66.4481 51.9264 66.6977 51.7728 66.5849 51.5784C66.3681 51.184 66.7841 51.7224 61.7145 45.8584C60.0465 43.9344 58.4401 41.9088 56.6393 40.108C56.5265 39.9952 56.3001 40.1496 56.4041 40.292Z" fill="#27272A"/>
<path d="M77.0942 30.6401C77.687 33.4849 80.2046 44.7713 80.3686 45.4977C80.4812 46.1794 80.6626 46.8478 80.9102 47.4929C80.9359 47.5342 80.9742 47.5662 81.0195 47.5842C81.0648 47.6021 81.1146 47.605 81.1616 47.5924C81.2087 47.5799 81.2505 47.5526 81.2808 47.5145C81.3112 47.4764 81.3285 47.4296 81.3302 47.3809C81.271 46.6872 81.1407 46.0015 80.9414 45.3345C80.7878 44.6489 78.1686 33.3521 77.4726 30.5273C77.4214 30.2945 77.0398 30.4001 77.0942 30.6401Z" fill="#27272A"/>
<path d="M96.0856 45.8993C97.0456 42.0169 97.7848 38.8737 98.6848 34.6841C99.007 33.4762 99.2531 32.2492 99.4216 31.0105C99.4424 30.7657 99.084 30.7449 99.0128 30.9601C98.6326 32.1697 98.3351 33.4037 98.1224 34.6537C97.8456 35.8921 96.2392 43.3209 95.7688 45.8177C95.758 45.8597 95.7643 45.9043 95.7864 45.9417C95.8084 45.979 95.8444 46.0061 95.8864 46.0169C95.9285 46.0277 95.973 46.0214 96.0104 45.9994C96.0478 45.9773 96.0748 45.9413 96.0856 45.8993Z" fill="#27272A"/>
<path d="M106.32 50.944C110.4 47.3645 114.159 43.4349 117.554 39.2C117.576 39.1591 117.584 39.1113 117.574 39.0654C117.565 39.0195 117.539 38.9786 117.502 38.95C117.465 38.9215 117.419 38.9073 117.372 38.91C117.325 38.9127 117.281 38.9322 117.247 38.9648C116.739 39.4353 116.277 39.9525 115.866 40.5096C111.742 45.3216 109.005 47.7184 106.052 50.6696C106.018 50.7057 106 50.7534 106.001 50.8027C106.001 50.852 106.021 50.8992 106.055 50.9345C106.09 50.9698 106.136 50.9905 106.186 50.9923C106.235 50.994 106.283 50.9767 106.32 50.944Z" fill="#27272A"/>
<path d="M67.0455 92.2119C69.3375 92.7031 71.6295 93.1943 73.9319 93.6447C74.3415 93.7247 74.5151 93.1231 74.1063 93.0207C71.7727 92.4607 69.4191 91.9567 67.0559 91.4655C67.0663 91.0559 67.3119 82.7983 67.4239 79.0735C67.4343 78.7767 66.9839 78.7767 66.9639 79.0735C66.6439 83.1463 66.4623 87.2287 66.3495 91.3135C65.3159 91.0983 49.0767 87.8343 47.4295 87.5271C47.1799 82.7807 47.0991 79.6223 46.8255 76.1079C46.8255 76.0549 46.8044 76.004 46.7669 75.9665C46.7294 75.929 46.6785 75.9079 46.6255 75.9079C46.5724 75.9079 46.5215 75.929 46.484 75.9665C46.4465 76.004 46.4255 76.0549 46.4255 76.1079C46.3511 79.2871 46.5623 84.2335 46.7455 87.3943C41.3423 86.3711 29.1863 84.2015 28.5215 84.0895C28.4703 83.7007 27.5079 75.9743 27.0063 72.5055C26.9655 72.2495 26.5263 72.3111 26.5567 72.5671C26.9351 76.3735 27.3751 80.1671 27.8367 83.9559C24.6951 83.4135 21.5535 82.9023 18.4015 82.4823C18.1359 82.4519 18.0743 82.9023 18.3407 82.9535C21.5327 83.5775 24.7255 84.1407 27.9287 84.6927C28.1943 86.8727 29.9439 101.086 30.5479 106.008C26.1879 105.281 24.4047 104.935 22.4439 104.78C22.2087 104.759 22.1671 105.127 22.3927 105.18C25.0943 105.866 27.8775 106.265 30.6327 106.715C30.7663 107.82 31.4719 113.52 31.6871 115.27C31.8089 117.012 32.0446 118.745 32.3927 120.458C32.4129 120.519 32.4541 120.572 32.5089 120.606C32.5638 120.641 32.6291 120.655 32.6933 120.647C32.7576 120.638 32.817 120.607 32.8611 120.56C32.9052 120.512 32.9314 120.451 32.9351 120.386C32.9583 118.647 32.7295 118.665 31.3495 106.848C31.5743 106.889 45.9095 109.437 48.0487 109.836C48.0903 110.706 48.3455 115.853 48.4071 117.562C48.4687 119.27 48.4375 121.001 48.6223 122.689C48.6223 122.774 48.6562 122.856 48.7167 122.917C48.7772 122.977 48.8592 123.011 48.9447 123.011C49.0302 123.011 49.1122 122.977 49.1726 122.917C49.2331 122.856 49.2671 122.774 49.2671 122.689C49.3471 121.143 49.2055 119.557 49.1439 118.012C49.0823 116.528 48.8239 111.177 48.7655 109.979C52.7967 110.726 64.4111 112.978 66.1919 113.339C66.1815 114.546 66.0583 123.97 66.0383 124.882C65.9819 125.805 65.9819 126.731 66.0383 127.654C66.0687 127.93 66.5183 128.054 66.5807 127.726C66.7526 126.153 66.8176 124.57 66.7751 122.988C66.8055 121.388 66.8775 115.048 66.8871 113.468C68.4549 113.855 70.0437 114.152 71.6455 114.358C71.9831 114.389 72.0239 113.887 71.7255 113.785C70.1528 113.356 68.5575 113.014 66.9471 112.762C66.9263 112.762 66.9167 112.752 66.8959 112.752C66.9023 111.47 66.9327 97.7791 67.0455 92.2119ZM31.2111 106.139C31.0263 104.666 29.2975 90.4519 28.5911 84.8343C32.4487 85.4999 44.5647 87.6895 46.7511 88.1087C46.8535 90.2063 47.6823 104.205 47.9383 109.117C43.0399 108.214 36.3887 107.002 31.2111 106.139ZM48.6679 109.259C48.5759 107.642 47.7367 93.6335 47.4503 88.2415C52.2183 89.1519 64.7943 91.7303 66.3191 92.0575C66.1447 98.9039 66.1655 105.77 66.1351 112.618C61.2799 111.622 50.8967 109.674 48.6679 109.26V109.259Z" fill="#BBF0A4"/>
<path d="M120.061 70.4575C119.836 70.6727 120.184 71.0175 120.409 70.8055C120.969 70.2631 121.369 70.1199 121.934 69.5775C127.426 64.1519 143.287 48.4863 147.403 42.7887C148.385 41.4175 149.45 39.4631 148.518 37.8359C148.375 37.5903 148.027 37.8055 148.139 38.0607C148.815 39.6063 147.731 41.3559 146.809 42.5839C142.995 47.7127 124.635 66.1047 120.061 70.4575Z" fill="#BBF0A4"/>
<path d="M100.486 31.6351C102.75 30.6751 105.263 31.0375 107.823 31.3687C113.695 32.1463 116.113 32.8207 121.494 33.7839C131.292 35.5439 136.654 37.3943 146.308 40.2815C146.396 40.3005 146.488 40.2851 146.564 40.2386C146.641 40.192 146.697 40.1178 146.72 40.0312C146.744 39.9446 146.734 39.8523 146.691 39.7732C146.649 39.6942 146.577 39.6344 146.492 39.6063C131.03 34.9767 131.698 34.9167 114.085 31.6455C111.153 31.0607 108.192 30.6334 105.214 30.3655C103.639 30.1669 102.04 30.3277 100.537 30.8359C100.543 31.1033 100.526 31.3707 100.486 31.6351Z" fill="#BBF0A4"/>
<path d="M151.28 38.5929C149.714 35.0625 144.88 34.1665 140.88 33.1289C131.04 30.5401 121.029 28.6577 111.032 26.8153C108.652 26.2635 106.227 25.9246 103.787 25.8025C99.1127 25.8025 96.0143 28.3441 92.6127 31.5433C90.7543 33.2801 83.2543 40.3121 81.3599 42.0801L81.5343 42.8473C87.5927 37.1769 90.6543 34.1169 94.5295 30.7017C98.6399 27.0689 101.489 25.9097 106.829 26.7417C112.189 27.5649 130.737 31.0521 142.92 34.3753C144.863 34.7832 146.735 35.4763 148.476 36.4321C149.329 36.9459 150.025 37.6843 150.487 38.5666C150.949 39.449 151.16 40.4413 151.096 41.4353C150.852 43.523 150.084 45.5153 148.865 47.2273C144.465 54.0881 136.373 61.8057 130.374 67.3449C129.535 68.1121 130.026 67.6001 129.188 68.3681C128.86 68.6753 129.348 69.1561 129.679 68.8593C136.627 62.4737 142.296 57.3265 147.944 49.7137C150.165 46.7281 153.001 42.4713 151.28 38.5929Z" fill="#BBF0A4"/>
<path d="M25.9103 64.3791C25.7927 64.333 25.666 64.3149 25.5402 64.3263C25.4144 64.3377 25.293 64.3784 25.1857 64.4449C25.0784 64.5115 24.988 64.6022 24.9219 64.7098C24.8557 64.8174 24.8156 64.9389 24.8047 65.0647C24.8047 65.2183 25.0607 65.2695 25.0919 65.1063C25.1181 64.9899 25.1851 64.8866 25.2807 64.8152C25.3764 64.7438 25.4944 64.7089 25.6135 64.7167C25.7526 64.7404 25.8849 64.7938 26.0014 64.8734C26.118 64.9529 26.2159 65.0566 26.2887 65.1775C26.4848 65.579 26.7264 65.9567 27.0087 66.3031C27.0287 66.3227 27.0545 66.3352 27.0822 66.3387C27.1099 66.3423 27.1381 66.3368 27.1624 66.323C27.1867 66.3091 27.2058 66.2878 27.2169 66.2621C27.228 66.2365 27.2305 66.2079 27.2239 66.1807C27.1207 65.7425 26.9215 65.3326 26.6407 64.9807C26.4756 64.7005 26.217 64.4874 25.9103 64.3791Z" fill="#27272A"/>
<path d="M27.0399 63.6736C26.5783 63.3168 25.7911 63.244 25.5255 63.868C25.4639 64.0008 25.6383 64.188 25.7607 64.0416C26.2407 63.4384 26.8967 64.0112 27.2007 64.4712C27.4975 64.9016 27.6415 65.4024 27.9279 65.8224C27.944 65.849 27.9683 65.8696 27.9971 65.8811C28.026 65.8926 28.0578 65.8945 28.0878 65.8864C28.1177 65.8782 28.1443 65.8606 28.1633 65.8361C28.1824 65.8115 28.193 65.7815 28.1935 65.7504C28.092 64.935 27.6785 64.1907 27.0399 63.6736Z" fill="#27272A"/>
<path d="M27.1071 63.08C27.0793 63.0966 27.0585 63.1226 27.0483 63.1533C27.0381 63.184 27.0394 63.2174 27.0519 63.2472C27.0643 63.2771 27.0871 63.3015 27.1161 63.3159C27.145 63.3303 27.1782 63.3337 27.2095 63.3256C27.9567 63.1312 28.4095 64.2768 28.6215 64.8192C28.7341 65.3127 28.8918 65.7947 29.0927 66.2592C29.1048 66.2773 29.1218 66.2916 29.1417 66.3003C29.1616 66.3091 29.1836 66.312 29.2051 66.3087C29.2265 66.3054 29.2467 66.2961 29.263 66.2818C29.2794 66.2675 29.2914 66.2489 29.2975 66.228C29.5327 65.5016 28.9775 64.4272 28.6119 63.8032C28.2943 63.2848 27.7639 62.6728 27.1071 63.08Z" fill="#27272A"/>
<path d="M28.683 63.0903C28.6584 63.1057 28.6399 63.1293 28.631 63.157C28.622 63.1847 28.6232 63.2146 28.6342 63.2415C28.6452 63.2685 28.6654 63.2906 28.6912 63.3041C28.7169 63.3175 28.7467 63.3215 28.775 63.3151C29.747 63.1007 29.9214 65.5767 30.167 66.1151C30.1803 66.138 30.2 66.1564 30.2237 66.1681C30.2474 66.1798 30.274 66.1842 30.3002 66.1809C30.3264 66.1776 30.351 66.1666 30.371 66.1494C30.391 66.1321 30.4055 66.1094 30.4126 66.0839C30.5254 65.4335 29.855 62.2271 28.683 63.0903Z" fill="#27272A"/>
<path d="M23.4336 43.5049C23.32 43.4561 23.2192 43.5969 23.2496 43.6889C23.3624 44.1689 23.9152 44.5593 24.2896 44.8457C26.0712 46.2105 27.9256 46.1193 29.1088 45.3257C29.5831 44.9396 29.9738 44.4611 30.2571 43.9192C30.5404 43.3773 30.7104 42.7834 30.7568 42.1737C31.0818 40.7136 31.1061 39.2026 30.828 37.7329C30.8146 37.686 30.7848 37.6456 30.7441 37.6188C30.7034 37.592 30.6544 37.5807 30.6061 37.5869C30.5577 37.593 30.5132 37.6163 30.4805 37.6525C30.4479 37.6887 30.4293 37.7353 30.428 37.7841C30.4797 39.0611 30.4388 40.3402 30.3056 41.6113C30.1456 42.7161 29.9056 44.0569 28.996 44.8041C27.9456 45.6729 26.1016 45.7641 24.436 44.3537C24.0992 44.0881 23.84 43.6801 23.4336 43.5049Z" fill="#27272A"/>
<path d="M27.0401 46.8201C27.1537 46.7297 27.1017 46.5137 26.9273 46.5649C25.3092 47.1211 23.5457 47.0811 21.9545 46.4521C22.7151 45.1556 23.0813 43.6655 23.0081 42.1641C23.0045 42.1056 22.9796 42.0505 22.9382 42.0091C22.8968 41.9677 22.8417 41.9429 22.7833 41.9393C22.6578 41.9336 22.5367 41.8913 22.4349 41.8177C22.3332 41.744 22.2552 41.6422 22.2105 41.5248C22.1659 41.4074 22.1566 41.2795 22.1837 41.1568C22.2108 41.0341 22.2733 40.9221 22.3633 40.8345C22.5266 40.7018 22.715 40.6036 22.9172 40.5456C23.1194 40.4875 23.3313 40.471 23.5401 40.4969C23.5682 40.4975 23.5958 40.4895 23.6192 40.4738C23.6426 40.4582 23.6606 40.4357 23.6707 40.4095C23.6808 40.3832 23.6827 40.3545 23.6759 40.3272C23.6691 40.2999 23.6541 40.2753 23.6329 40.2569C24.0089 40.1191 24.3361 39.8737 24.5737 39.5513C25.0378 38.9845 25.3983 38.3402 25.6385 37.6481C29.5321 38.3129 33.6721 36.4097 32.2481 34.5065C32.0555 34.2907 31.8189 34.1188 31.5542 34.0023C31.2895 33.8859 31.0028 33.8275 30.7137 33.8313C29.7886 33.7758 28.8604 33.8026 27.9401 33.9113C26.4465 34.0649 24.7073 34.2385 23.5505 35.3129C21.8233 36.9057 22.0961 40.0393 22.3225 40.2657C22.1038 40.3594 21.9212 40.5209 21.8015 40.7265C21.6818 40.932 21.6314 41.1706 21.6577 41.407C21.6841 41.6434 21.7859 41.865 21.9479 42.0391C22.11 42.2132 22.3238 42.3305 22.5577 42.3737C22.5037 43.7407 22.1584 45.0805 21.5449 46.3033C20.9209 46.0881 20.2969 45.8633 19.6721 45.6793C17.5441 45.0345 15.2521 44.9217 13.5537 46.5793C12.0289 48.0737 11.4657 50.2737 11.2513 52.3305C10.8875 55.9046 11.2741 59.5153 12.3865 62.9313C12.6788 64.0154 13.2182 65.017 13.9625 65.8577C13.9883 65.8916 14.0265 65.9139 14.0687 65.9197C14.1109 65.9255 14.1537 65.9143 14.1877 65.8885C14.2216 65.8627 14.2439 65.8245 14.2497 65.7823C14.2555 65.74 14.2443 65.6972 14.2185 65.6633C13.8089 64.7529 13.2873 63.9137 12.9385 62.9617C11.9013 59.913 11.4771 56.6893 11.6905 53.4761C11.7825 51.2865 12.1913 48.8609 13.7057 47.1625C15.4353 45.2289 17.9113 45.5865 20.1425 46.3233C22.1497 46.9993 25.3057 48.1993 27.0401 46.8201Z" fill="#27272A"/>
<path d="M18.7065 54.9344C18.6966 54.8992 18.6743 54.8687 18.6436 54.8486C18.613 54.8286 18.5761 54.8204 18.5399 54.8254C18.5036 54.8305 18.4704 54.8486 18.4465 54.8763C18.4226 54.904 18.4095 54.9394 18.4097 54.976C18.5201 56.6414 18.8328 58.2871 19.3409 59.8768C19.7249 61.028 20.6009 63.1824 21.5721 63.9192C21.6737 63.9992 21.7665 63.8472 21.7321 63.7592C21.0025 62.1 19.7913 61.7144 18.7065 54.9344Z" fill="#27272A"/>
<path d="M30.249 44.9889C30.2102 44.9917 30.174 45.009 30.1476 45.0374C30.1211 45.0659 30.1064 45.1033 30.1064 45.1421C30.1064 45.1809 30.1211 45.2183 30.1476 45.2467C30.174 45.2751 30.2102 45.2925 30.249 45.2953C32.105 45.5097 32.257 46.0425 32.969 46.2169C32.9954 46.2231 33.0231 46.2215 33.0486 46.2123C33.0741 46.203 33.0964 46.1864 33.1126 46.1647C33.1289 46.1429 33.1384 46.1168 33.14 46.0897C33.1416 46.0626 33.1353 46.0356 33.1218 46.0121C32.6026 45.2001 31.129 44.9505 30.249 44.9889Z" fill="#27272A"/>
<path d="M41.4401 51.9471C40.7849 48.3063 39.2001 45.3871 37.4193 42.1543C37.3896 42.108 37.3433 42.0748 37.29 42.0614C37.2366 42.048 37.1801 42.0555 37.1321 42.0823C37.1121 41.2231 37.9001 40.1079 37.1425 39.3711C36.5593 38.8183 35.9553 39.5447 35.8625 40.1079C35.8425 40.2407 36.0369 40.3023 36.0777 40.1687C36.1185 39.9951 36.3745 39.5343 36.5481 39.5143C36.6727 39.5156 36.793 39.5602 36.8883 39.6405C36.9836 39.7208 37.048 39.8317 37.0705 39.9543C37.3105 40.8879 36.5905 41.4687 36.8305 42.3383C36.1127 42.8961 35.2414 43.221 34.3337 43.2695C34.1905 42.6967 33.5665 42.3095 33.2937 41.7959C33.1473 41.5802 33.0921 41.3154 33.1401 41.0591C33.3041 40.6399 33.7745 40.7111 34.1001 40.7111C35.0897 40.7111 34.7881 40.7639 35.2465 41.0695C35.2649 41.0797 35.2856 41.0851 35.3067 41.0851C35.3278 41.0851 35.3485 41.0797 35.3669 41.0694C35.3853 41.0592 35.4008 41.0444 35.412 41.0265C35.4231 41.0086 35.4295 40.9882 35.4305 40.9671C35.4513 40.5671 35.0521 40.3839 34.6937 40.3223C34.1161 40.1777 33.5051 40.2584 32.9849 40.5479C32.8436 40.7073 32.7518 40.9045 32.721 41.1152C32.6902 41.326 32.7215 41.5411 32.8113 41.7343C33.0977 42.4647 33.7241 42.8895 33.9465 43.2799C33.9202 43.2786 33.8938 43.2827 33.8691 43.2919C33.8444 43.3011 33.8219 43.3152 33.8028 43.3334C33.7837 43.3515 33.7685 43.3734 33.7581 43.3976C33.7478 43.4219 33.7425 43.448 33.7425 43.4743C33.9525 46.5313 34.8067 49.5092 36.2489 52.2127C36.3209 52.3455 36.4945 52.2335 36.4433 52.0999C35.2561 49.4271 34.4887 46.5869 34.1681 43.6799C35.274 43.67 36.3435 43.2834 37.2001 42.5839C38.9193 45.7967 40.7921 49.1839 41.2417 52.8575C41.4569 54.6479 41.1089 56.5311 39.3801 57.4311C37.6201 58.3623 35.8089 57.7687 34.1001 57.0735C33.9673 56.0399 33.8753 55.0063 33.7729 53.9623C33.7529 53.7887 33.4865 53.8191 33.4761 53.9831C33.4418 56.4105 33.7765 58.8291 34.4689 61.1559C34.6177 61.8609 34.8695 62.5402 35.2161 63.1719C35.3185 63.3255 35.5129 63.1719 35.4921 63.0287C35.3825 61.9143 34.7545 61.3487 34.1617 57.5543C36.4337 58.7615 39.8721 58.7207 41.1609 56.1727C41.7155 54.8331 41.8136 53.3481 41.4401 51.9471Z" fill="#27272A"/>
<path d="M27.3432 38.3888C27.1463 38.4656 26.9632 38.5736 26.8008 38.7089C26.6064 38.8217 26.4008 38.9136 26.2176 39.0288C26.084 39.1 26.176 39.2745 26.3096 39.2537C26.5445 39.2137 26.77 39.1305 26.9744 39.008C27.1882 38.9268 27.3732 38.7843 27.5064 38.5985C27.5199 38.5737 27.5259 38.5455 27.5236 38.5174C27.5214 38.4892 27.5109 38.4624 27.4936 38.4401C27.4762 38.4179 27.4528 38.4011 27.4261 38.392C27.3993 38.3829 27.3706 38.3818 27.3432 38.3888Z" fill="#27272A"/>
<path d="M30.024 39.3095C30.0952 39.3095 30.1776 39.2375 30.1672 39.1663C30.1464 39.0063 30.0136 38.8999 29.9216 38.7663C29.8296 38.6327 29.7376 38.4999 29.6352 38.3775C29.5328 38.2551 29.3792 38.3879 29.3992 38.5103C29.4385 38.6848 29.5155 38.8487 29.6248 38.9903C29.7272 39.1351 29.8496 39.2991 30.024 39.3095Z" fill="#27272A"/>
<path d="M27.6001 41.7959C27.3649 41.6943 27.2425 42.1031 27.4881 42.1847C27.9281 42.3447 28.4705 42.5631 28.6337 41.9391C28.6922 41.5417 28.6991 41.1383 28.6545 40.7391C28.6581 40.3363 28.6203 39.9342 28.5417 39.5391C28.5009 39.3791 28.2857 39.4367 28.2657 39.5799C28.1121 40.6783 28.5777 41.5711 28.1801 41.8999C28.0153 42.0455 27.7969 41.8815 27.6001 41.7959Z" fill="#27272A"/>
<path d="M26.7592 40.8648C26.8555 40.8648 26.9479 40.8266 27.016 40.7584C27.0841 40.6903 27.1224 40.598 27.1224 40.5016C27.1224 40.4053 27.0841 40.3129 27.016 40.2448C26.9479 40.1767 26.8555 40.1384 26.7592 40.1384C26.6629 40.1384 26.5705 40.1767 26.5024 40.2448C26.4343 40.3129 26.396 40.4053 26.396 40.5016C26.396 40.598 26.4343 40.6903 26.5024 40.7584C26.5705 40.8266 26.6629 40.8648 26.7592 40.8648Z" fill="#27272A"/>
<path d="M29.5118 40.9776C29.5919 40.9735 29.6674 40.9388 29.7227 40.8807C29.778 40.8226 29.8088 40.7454 29.8088 40.6652C29.8088 40.585 29.778 40.5078 29.7227 40.4497C29.6674 40.3915 29.5919 40.3568 29.5118 40.3528C29.4317 40.3568 29.3562 40.3915 29.3009 40.4497C29.2457 40.5078 29.2148 40.585 29.2148 40.6652C29.2148 40.7454 29.2457 40.8226 29.3009 40.8807C29.3562 40.9388 29.4317 40.9735 29.5118 40.9776Z" fill="#27272A"/>
<path d="M26.176 43.5047C26.297 43.3538 26.4518 43.2335 26.6279 43.1535C26.804 43.0734 26.9964 43.0359 27.1896 43.0439C27.7112 43.1567 27.3632 43.7295 27.4144 44.0471C27.4207 44.0673 27.4315 44.0858 27.4459 44.1012C27.4603 44.1166 27.4779 44.1286 27.4976 44.1363C27.5173 44.144 27.5384 44.1472 27.5595 44.1456C27.5805 44.144 27.6009 44.1377 27.6192 44.1271C28.172 43.8615 27.9056 42.9095 27.4352 42.6951C27.1537 42.6074 26.85 42.6237 26.5795 42.7412C26.3089 42.8587 26.0897 43.0695 25.9616 43.3351C25.9 43.4743 26.0736 43.6167 26.176 43.5047Z" fill="#27272A"/>
<path d="M31.9999 38.3201C31.9812 38.3398 31.9695 38.365 31.9666 38.392C31.9636 38.419 31.9696 38.4461 31.9836 38.4694C31.9975 38.4926 32.0188 38.5106 32.0439 38.5207C32.0691 38.5307 32.0969 38.5322 32.1231 38.5249C32.9415 38.2793 33.0335 39.5889 33.5455 39.9265C33.5598 39.9349 33.576 39.9394 33.5926 39.9395C33.6091 39.9397 33.6254 39.9355 33.6399 39.9274C33.6544 39.9193 33.6665 39.9076 33.675 39.8934C33.6836 39.8793 33.6883 39.8631 33.6887 39.8465C33.6632 39.5841 33.5679 39.3332 33.4127 39.1201C33.3018 38.8834 33.1644 38.6601 33.0031 38.4545C32.9497 38.3751 32.8801 38.3079 32.7988 38.2574C32.7176 38.2069 32.6265 38.1742 32.5317 38.1615C32.4369 38.1488 32.3404 38.1564 32.2488 38.1837C32.1571 38.2111 32.0722 38.2575 31.9999 38.3201Z" fill="#27272A"/>
<path d="M34.3008 39.84C34.2637 39.7007 34.2747 39.553 34.332 39.4208C34.3928 39.2768 34.5056 39.216 34.6184 39.124C34.7512 39.0112 34.608 38.8168 34.4648 38.8576C34.3644 38.8973 34.2736 38.9581 34.1987 39.0359C34.1238 39.1137 34.0665 39.2067 34.0306 39.3085C33.9948 39.4104 33.9812 39.5187 33.9908 39.6263C34.0004 39.7339 34.033 39.8381 34.0864 39.932C34.0996 39.9589 34.1226 39.9797 34.1507 39.9901C34.1788 40.0005 34.2098 39.9997 34.2373 39.9879C34.2649 39.9761 34.2868 39.9542 34.2986 39.9266C34.3104 39.8991 34.3112 39.8681 34.3008 39.84Z" fill="#27272A"/>
<path d="M35.2002 39.9639C35.2081 39.7436 35.2567 39.5267 35.3434 39.3239C35.4354 39.1639 35.6098 39.1495 35.7322 39.0167C35.9034 38.8447 35.4706 38.5247 35.0874 39.0679C34.9352 39.3382 34.8809 39.6527 34.9338 39.9583C34.9356 39.992 34.95 40.0237 34.9743 40.0472C34.9985 40.0706 35.0307 40.0841 35.0644 40.0848C35.0981 40.0855 35.1308 40.0734 35.156 40.051C35.1812 40.0286 35.197 39.9975 35.2002 39.9639Z" fill="#27272A"/>
<path d="M15.2887 108.502C15.2679 108.196 14.7767 108.182 14.7975 108.502C14.8911 109.653 15.7775 110.684 15.2991 111.47C14.8487 112.207 13.6719 112.002 12.9455 112.013C10.4247 112.051 7.94075 113.293 5.49595 113.148C5.14795 113.128 4.72875 113.128 4.57515 112.739C4.53829 112.612 4.53301 112.477 4.55977 112.347C4.58653 112.216 4.64452 112.095 4.72875 111.992C5.23995 111.266 6.41675 110.969 7.19435 110.6C8.87435 109.8 10.4079 107.746 12.4439 108.513C12.6687 108.593 12.7639 108.278 12.5975 108.155C11.0527 106.998 9.24155 108.758 8.03755 109.567C6.41515 110.649 4.12955 110.98 4.06715 112.453C3.96075 114.797 8.82075 113.134 11.0359 112.709C13.2847 112.263 15.1807 112.914 15.7839 111.552C16.2503 110.518 15.3599 109.52 15.2887 108.502Z" fill="#27272A"/>
<path d="M10.1415 106.098C11.7913 106.001 13.4468 106.125 15.0639 106.466C15.1355 106.482 15.2104 106.471 15.2743 106.435C15.3383 106.399 15.387 106.341 15.4111 106.272C15.5343 105.965 15.6567 105.648 15.7799 105.33C14.8591 99.9585 12.6695 85.7457 12.4199 84.0369C11.1678 91.2463 10.3103 98.5187 9.85107 105.822C9.85515 105.896 9.88746 105.966 9.94142 106.018C9.99538 106.069 10.0669 106.098 10.1415 106.098Z" fill="#27272A"/>
<path d="M137.129 88.9273C136.48 87.1453 135.34 85.5833 133.841 84.4224C132.341 83.2614 130.544 82.5489 128.656 82.3673C132.371 78.0081 136.137 72.7073 134.356 66.7209C134.343 66.675 134.317 66.6334 134.283 66.6C134.249 66.5666 134.207 66.5426 134.16 66.5303C134.114 66.518 134.066 66.5178 134.019 66.5297C133.973 66.5417 133.93 66.5654 133.896 66.5985C133.789 66.6889 131.914 68.3025 131.89 68.3273C131.685 68.5425 131.746 68.6857 131.787 68.9729C131.944 70.413 131.89 71.8684 131.627 73.2929C131.067 76.4801 129.572 78.5729 127.197 81.0593C125.068 78.8801 122.653 76.7113 121.804 73.6921C121.398 72.3261 121.329 70.8823 121.601 69.4837C121.874 68.085 122.481 66.773 123.37 65.6593C123.666 65.6081 123.656 65.1273 123.339 65.1481C120.412 65.3321 118.59 68.2793 118.652 71.0113C118.732 74.3473 120.862 77.5401 123.01 79.9649C123.825 80.8849 124.73 81.7211 125.712 82.4609C123.322 82.9012 121.179 84.2099 119.696 86.1353C117.548 88.8689 116.545 93.4729 118.427 96.4801C118.46 96.5348 118.505 96.5806 118.56 96.6137C121.006 101.792 127.422 103.606 132.272 101.208C136.648 99.0577 138.694 93.4817 137.129 88.9273ZM129.614 97.9521C127.809 99.9969 124.286 98.5121 124.435 92.5041C124.468 91.0313 124.951 87.9617 126.548 86.8897C127.047 86.5438 127.656 86.3935 128.259 86.4672C128.861 86.541 129.416 86.8337 129.817 87.2897C131.701 89.3465 131.44 95.9121 129.614 97.9521Z" fill="#27272A"/>
<path d="M129.066 88.1353C128.207 87.1065 127.278 87.5033 126.586 88.6609C125.999 89.7026 125.641 90.8577 125.536 92.0489C125.431 93.24 125.582 94.4399 125.978 95.5681C126.837 98.2505 128.378 98.1793 129.15 96.6353C129.891 94.7964 130.155 92.8004 129.919 90.8321C129.89 89.8716 129.595 88.9379 129.066 88.1353Z" fill="#27272A"/>
<path d="M148.754 78.8001C146.282 79.4865 145.106 79.7249 134.98 81.9825C135.893 74.1729 135.986 73.7745 136.003 72.3529C136.001 72.3206 135.992 72.2892 135.976 72.2609C135.96 72.2327 135.938 72.2083 135.912 72.1897C135.885 72.1711 135.855 72.1586 135.823 72.1532C135.791 72.1478 135.758 72.1496 135.727 72.1585C135.632 72.663 135.509 73.1619 135.359 73.6529C135.257 74.3457 134.368 81.6769 134.315 82.1329C133.803 82.2457 133.302 82.3585 132.791 82.4609C133.504 82.8068 134.174 83.2365 134.786 83.7409C134.827 83.3929 134.866 83.0345 134.909 82.6865C142.48 80.9897 144.597 80.6345 148.927 79.3713C148.996 79.3427 149.052 79.2896 149.083 79.2223C149.115 79.155 149.121 79.0784 149.099 79.0072C149.077 78.936 149.03 78.8754 148.966 78.8372C148.902 78.7989 148.827 78.7857 148.754 78.8001Z" fill="#BBF0A4"/>
<path d="M145.141 99.8049C143.158 100.159 141.212 100.706 139.258 101.186C137.303 101.667 132.811 102.786 132.524 102.854C132.545 102.681 132.566 102.506 132.586 102.322C132.35 102.434 132.106 102.537 131.866 102.63C131.845 102.762 131.834 102.895 131.814 103.03C128.427 103.869 117.611 106.54 115.586 107.041C115.77 105.721 116.721 98.4353 117.008 96.1225C116.781 95.5831 116.616 95.0194 116.517 94.4425C116.015 98.7092 115.466 102.969 114.869 107.223C109.313 108.594 97.8113 111.438 97.6169 111.49C97.7705 109.955 99.1208 95.8241 99.612 90.2897C102.713 89.6145 114.572 87.0561 117.406 86.4497C117.335 87.0745 117.274 87.6985 117.202 88.3225C117.593 87.2994 118.135 86.3405 118.809 85.4777C118.594 85.5185 118.389 85.5697 118.174 85.6105C118.478 82.5817 118.824 79.4505 119.003 76.2577C118.85 75.9617 118.706 75.6649 118.574 75.3777C118.31 77.3969 118.272 77.9377 117.468 85.7641C115.186 86.2553 103.316 88.8041 99.6633 89.6121C99.6865 89.2185 100.303 83.1441 100.472 78.8473C100.482 78.6017 100.124 78.6073 100.103 78.8473C99.6328 82.4697 99.3032 86.1121 98.988 89.7649C96.7176 90.2537 88.032 92.1865 86.136 92.8961C86.0851 92.9138 86.0427 92.9502 86.0176 92.9979C85.9924 93.0457 85.9864 93.1012 86.0006 93.1532C86.0148 93.2053 86.0483 93.25 86.0942 93.2783C86.1402 93.3066 86.1952 93.3164 86.248 93.3057C89.2464 92.6609 97.688 90.7065 98.9264 90.4409C98.7424 92.5585 97.4329 106.71 96.9417 111.674C92.9417 112.646 88.9088 113.556 84.9688 114.722C84.9059 114.743 84.8533 114.787 84.8218 114.846C84.7903 114.904 84.7822 114.972 84.7993 115.036C84.8163 115.1 84.8572 115.155 84.9136 115.19C84.9699 115.225 85.0375 115.237 85.1024 115.224C89.052 114.436 92.9505 113.362 96.8625 112.4H96.8729C96.7929 113.167 95.9624 121.22 95.8808 122.039C95.7271 122.921 95.6652 123.816 95.6961 124.71C95.698 124.763 95.7185 124.813 95.754 124.853C95.7895 124.892 95.8377 124.918 95.8902 124.925C95.9427 124.932 95.9961 124.921 96.0411 124.893C96.086 124.865 96.1197 124.822 96.136 124.771C96.3198 124.1 96.4271 123.41 96.456 122.714C96.536 121.937 97.4073 113.474 97.5305 112.246C101.21 111.335 112.695 108.501 114.752 107.99C114.042 113.226 113.019 119.385 112.858 120.893C112.86 120.964 112.887 121.032 112.934 121.085C112.981 121.138 113.046 121.173 113.116 121.182C113.187 121.192 113.258 121.176 113.318 121.138C113.378 121.099 113.422 121.041 113.442 120.973C113.958 118.618 114.22 116.674 115.458 107.814L131.698 103.793C130.798 111.313 130.476 113.194 130.234 116.399C130.214 116.737 130.777 116.818 130.838 116.479C131.299 113.655 131.558 110.79 131.892 107.946C132.066 106.506 132.24 105.05 132.404 103.606C142.197 101.158 142.964 101.09 145.256 100.353C145.321 100.33 145.375 100.285 145.408 100.225C145.442 100.165 145.453 100.095 145.439 100.028C145.425 99.9613 145.387 99.9017 145.332 99.8606C145.277 99.8194 145.209 99.7997 145.141 99.8049Z" fill="#BBF0A4"/>
<path d="M155.845 64.1032C155.854 64.0193 155.83 63.9351 155.779 63.8682C155.727 63.8014 155.651 63.7572 155.568 63.7448C154.705 63.6608 138.91 61.7904 138.828 61.78C137.477 63.1312 136.177 64.3896 134.857 65.6384C135.132 65.8197 135.334 66.0911 135.43 66.4056C135.565 66.8563 135.674 67.3141 135.757 67.7768C139.268 67.1832 152.397 64.9216 155.425 64.328C155.451 64.3203 155.478 64.3171 155.505 64.3184C154.305 70.8784 153.233 77.4568 151.985 84.0056C150.603 91.2504 145.825 114.202 145.62 115.747C145.54 115.774 81.9991 133.347 80.7551 133.667C80.7271 133.64 22.0127 121.371 20.2391 121.234C20.2391 121.095 17.0471 103.584 16.5343 100.493C15.3991 93.6368 12.4207 72.1176 11.7767 68.26C11.7359 68.0248 11.3367 68.076 11.3567 68.3216C12.2767 79.9392 19.1791 121.006 19.7071 121.531C19.7186 121.562 19.7377 121.59 19.7628 121.611C19.7878 121.633 19.8179 121.648 19.8503 121.654C22.7255 122.268 76.6207 133.688 79.7703 134.118C79.9951 134.148 80.2303 134.118 80.4455 134.138C80.6055 134.298 80.8847 134.16 82.7479 133.667C84.3751 133.238 145.853 116.323 145.924 116.302C145.961 116.297 145.996 116.283 146.027 116.261C146.057 116.24 146.083 116.212 146.102 116.18C146.12 116.148 146.132 116.112 146.134 116.074C146.137 116.037 146.132 116 146.118 115.965C146.94 113.254 153.707 78.488 154.377 74.6848C154.98 71.236 155.577 67.7776 155.932 64.2984C155.941 64.2608 155.937 64.2214 155.921 64.1862C155.905 64.1509 155.879 64.1218 155.845 64.1032Z" fill="#BBF0A4"/>
<path d="M95.2881 56.6232C95.2601 56.9104 94.3321 64.2088 93.8145 69.5264C93.7491 71.0956 93.5745 72.6583 93.2921 74.2032C93.2313 74.4688 92.8625 74.3872 92.8425 74.1416C92.8259 72.5215 92.942 70.9028 93.1897 69.3016C93.3545 67.6112 94.3417 58.5712 94.6737 56.6536C93.6289 56.8352 73.8737 59.2784 70.6377 59.6728C72.8265 57.7472 96.0505 34.92 97.0993 33.9928C97.1465 33.7896 97.3017 33.0088 97.3345 32.8464C96.1593 33.8408 89.4345 40.4632 77.0329 52.5752C74.6073 54.9384 72.0729 57.2512 69.8089 59.7752C67.3833 60.072 64.8657 60.3792 62.3897 60.6864C68.0385 55.5664 73.5737 50.3408 79.1201 45.112L78.9465 44.324C74.0241 48.908 62.4305 59.92 61.5201 60.8C53.2929 61.8128 35.0401 64.0432 31.0065 64.524C31.1651 65.0789 31.2238 65.6575 31.1801 66.2328C31.1524 66.3778 31.0904 66.514 30.9992 66.6301C30.908 66.7461 30.7904 66.8386 30.6561 66.8998C30.5218 66.961 30.3748 66.9891 30.2274 66.9818C30.08 66.9744 29.9365 66.9319 29.8089 66.8576C29.7137 66.9505 29.5991 67.021 29.4734 67.0642C29.3477 67.1074 29.2139 67.1222 29.0818 67.1075C28.9496 67.0928 28.8224 67.049 28.7092 66.9793C28.5961 66.9095 28.4998 66.8155 28.4273 66.704C28.4073 66.6728 28.3969 66.6528 28.3761 66.624C28.2168 66.6867 28.0426 66.7009 27.8753 66.6648C27.8445 66.7182 27.8103 66.7695 27.7729 66.8184C27.6876 66.9171 27.5824 66.9965 27.4643 67.0517C27.3461 67.1068 27.2177 67.1364 27.0873 67.1384C26.2513 67.1384 25.8929 66.0272 25.6649 65.6856C25.5563 65.8107 25.4168 65.905 25.2604 65.9592C25.1039 66.0134 24.9359 66.0256 24.7733 65.9945C24.6106 65.9634 24.459 65.8901 24.3336 65.782C24.2081 65.6739 24.1133 65.5347 24.0585 65.3784C23.6121 65.428 12.4113 66.7896 11.7993 66.8416C11.5233 66.8656 11.5129 67.3024 11.7993 67.2816L12.5673 67.22C12.6513 67.2336 82.3969 77.6576 83.4177 77.504C83.2849 83.992 82.9065 90.4792 82.5377 96.944C81.2177 120.341 80.3169 129.07 80.3273 132.758C80.3273 133.004 80.7369 133.086 80.7777 132.819C81.4777 128.166 83.5913 90.912 83.7761 86.22C83.8889 83.2936 84.0009 80.3568 83.9601 77.42C84.0497 77.4056 116.501 71.4392 117.523 71.2496C117.523 71.1776 117.513 71.1064 117.513 71.0344C117.442 67.8424 119.61 64.2608 123.243 64.0256H123.335C123.546 64.0259 123.753 64.0751 123.942 64.1692C124.13 64.2633 124.294 64.3999 124.42 64.568C125.822 63.176 127.162 61.8355 128.442 60.5464C91.6329 56.2744 96.0393 56.6048 95.2881 56.6232Z" fill="#BBF0A4"/>
</svg>
